<svg width="16" height="16" viewBox="0 0 16 16" fill="none" xmlns="http://www.w3.org/2000/svg">
<path d="M16 8C16 12.4182 12.4182 16 8 16C3.58222 16 0 12.4182 0 8C0 3.58222 3.58222 0 8 0C12.4182 0 16 3.58222 16 8Z" fill="#F24E1E"/>
<path d="M11.3266 13.2795C11.3066 13.1999 10.8075 11.3333 7.99991 11.3333C5.19191 11.3333 4.69324 13.1999 4.67324 13.2795C4.66157 13.3264 4.66554 13.3759 4.68455 13.4203C4.70357 13.4648 4.73658 13.5018 4.77858 13.5257C4.8208 13.5494 4.86954 13.5589 4.91757 13.5527C4.96561 13.5466 5.01037 13.5251 5.04524 13.4915C5.05369 13.4831 5.91369 12.6666 7.99991 12.6666C10.0861 12.6666 10.9466 13.4831 10.9546 13.4911C10.989 13.5251 11.0335 13.547 11.0815 13.5535C11.1294 13.5599 11.1781 13.5507 11.2204 13.5271C11.2627 13.5031 11.2961 13.4659 11.3153 13.4212C11.3344 13.3765 11.3384 13.3267 11.3266 13.2795ZM6.9808 7.68572C5.53413 6.23906 3.20924 6.22217 3.11102 6.22217C2.99658 6.22723 2.88851 6.27624 2.8093 6.35899C2.73009 6.44174 2.68585 6.55185 2.68579 6.6664C2.68573 6.78095 2.72986 6.89111 2.80899 6.97394C2.88812 7.05677 2.99614 7.10588 3.11058 7.11106C3.12347 7.11106 3.96613 7.12083 4.8808 7.43861C4.61724 7.72306 4.44436 8.16483 4.44436 8.66661C4.44436 9.52617 4.94169 10.2222 5.55547 10.2222C6.16924 10.2222 6.66658 9.52617 6.66658 8.66661C6.66658 8.58928 6.65813 8.5155 6.65013 8.44128C6.65591 8.44128 6.66124 8.44439 6.66658 8.44439C6.75456 8.44458 6.84062 8.41863 6.91383 8.36983C6.98704 8.32103 7.0441 8.25158 7.07777 8.17029C7.11143 8.089 7.12019 7.99954 7.10293 7.91327C7.08566 7.827 7.04316 7.7478 6.9808 7.68572ZM12.8888 6.22217C12.7906 6.22217 10.4661 6.23906 9.01902 7.68572C8.95667 7.7478 8.91416 7.827 8.89689 7.91327C8.87963 7.99954 8.88839 8.089 8.92206 8.17029C8.95572 8.25158 9.01278 8.32103 9.08599 8.36983C9.1592 8.41863 9.24526 8.44458 9.33324 8.44439C9.33902 8.44439 9.34391 8.44128 9.34924 8.44128C9.34213 8.5155 9.33324 8.58928 9.33324 8.66661C9.33324 9.52617 9.83058 10.2222 10.4444 10.2222C11.0581 10.2222 11.5555 9.52617 11.5555 8.66661C11.5555 8.16483 11.3826 7.72306 11.119 7.43861C11.6901 7.24371 12.2867 7.13335 12.8897 7.11106C12.9481 7.111 13.0058 7.09945 13.0597 7.07706C13.1136 7.05467 13.1626 7.02188 13.2038 6.98057C13.2451 6.93926 13.2777 6.89023 13.3 6.83628C13.3223 6.78234 13.3337 6.72453 13.3337 6.66617C13.3336 6.6078 13.3221 6.55002 13.2997 6.49612C13.2773 6.44222 13.2445 6.39326 13.2032 6.35203C13.1619 6.3108 13.1129 6.27811 13.0589 6.25583C13.005 6.23355 12.9472 6.22211 12.8888 6.22217Z" fill="black"/>
</svg>
