<svg width="16" height="16" viewBox="0 0 16 16" fill="none" xmlns="http://www.w3.org/2000/svg">
<path d="M8 16C12.4183 16 16 12.4183 16 8C16 3.58172 12.4183 0 8 0C3.58172 0 0 3.58172 0 8C0 12.4183 3.58172 16 8 16Z" fill="#FF8311"/>
<path d="M11.3267 12.1684C11.3067 12.0888 10.8075 10.2222 7.99998 10.2222C5.19198 10.2222 4.69332 12.0888 4.67332 12.1684C4.66164 12.2153 4.66561 12.2647 4.68462 12.3092C4.70364 12.3536 4.73666 12.3907 4.77865 12.4146C4.82084 12.4385 4.86961 12.448 4.91767 12.4418C4.96574 12.4357 5.01052 12.4141 5.04532 12.3804C5.05376 12.3719 5.91376 11.5555 7.99998 11.5555C10.0862 11.5555 10.9467 12.3719 10.9547 12.3799C10.9891 12.4139 11.0336 12.4358 11.0815 12.4423C11.1295 12.4488 11.1782 12.4396 11.2204 12.4159C11.2628 12.392 11.2961 12.3548 11.3153 12.3101C11.3345 12.2654 11.3385 12.2156 11.3267 12.1684Z" fill="black"/>
<path d="M5.33328 7.55569C5.94693 7.55569 6.44439 6.85925 6.44439 6.00014C6.44439 5.14103 5.94693 4.44458 5.33328 4.44458C4.71963 4.44458 4.22217 5.14103 4.22217 6.00014C4.22217 6.85925 4.71963 7.55569 5.33328 7.55569Z" fill="black"/>
<path d="M10.6668 7.55569C11.2804 7.55569 11.7779 6.85925 11.7779 6.00014C11.7779 5.14103 11.2804 4.44458 10.6668 4.44458C10.0531 4.44458 9.55566 5.14103 9.55566 6.00014C9.55566 6.85925 10.0531 7.55569 10.6668 7.55569Z" fill="black"/>
</svg>
