<svg width="16" height="16" viewBox="0 0 16 16" fill="none" xmlns="http://www.w3.org/2000/svg">
<path d="M16 8C16 12.4182 12.4182 16 8 16C3.58222 16 0 12.4182 0 8C0 3.58222 3.58222 0 8 0C12.4182 0 16 3.58222 16 8Z" fill="#FFC700"/>
<path d="M5.11111 7.99997C5.72476 7.99997 6.22222 6.90556 6.22222 5.55553C6.22222 4.2055 5.72476 3.11108 5.11111 3.11108C4.49746 3.11108 4 4.2055 4 5.55553C4 6.90556 4.49746 7.99997 5.11111 7.99997Z" fill="black"/>
<path d="M10.8889 7.99997C11.5026 7.99997 12.0001 6.90556 12.0001 5.55553C12.0001 4.2055 11.5026 3.11108 10.8889 3.11108C10.2753 3.11108 9.77783 4.2055 9.77783 5.55553C9.77783 6.90556 10.2753 7.99997 10.8889 7.99997Z" fill="black"/>
<path d="M7.99997 9.77784C6.38975 9.77784 5.32131 9.59028 3.99997 9.33339C3.6982 9.27517 3.11108 9.33339 3.11108 10.2223C3.11108 12.0001 5.15331 14.2223 7.99997 14.2223C10.8462 14.2223 12.8889 12.0001 12.8889 10.2223C12.8889 9.33339 12.3018 9.27473 12 9.33339C10.6786 9.59028 9.6102 9.77784 7.99997 9.77784Z" fill="black"/>
<path d="M4 10.2222C4 10.2222 5.33333 10.6666 8 10.6666C10.6667 10.6666 12 10.2222 12 10.2222C12 10.2222 11.1111 11.9999 8 11.9999C4.88889 11.9999 4 10.2222 4 10.2222Z" fill="white"/>
</svg>
