<svg width="16" height="16" viewBox="0 0 16 16" fill="none" xmlns="http://www.w3.org/2000/svg">
<path d="M8 16C12.4183 16 16 12.4183 16 8C16 3.58172 12.4183 0 8 0C3.58172 0 0 3.58172 0 8C0 12.4183 3.58172 16 8 16Z" fill="#FFC700"/>
<path d="M4.67343 10.4981C4.69343 10.5777 5.19254 12.4444 8.0001 12.4444C10.8081 12.4444 11.3068 10.5777 11.3268 10.4981C11.3384 10.4512 11.3345 10.4018 11.3155 10.3573C11.2964 10.3129 11.2634 10.2759 11.2214 10.2519C11.1792 10.2281 11.1305 10.2185 11.0824 10.2247C11.0343 10.2308 10.9896 10.2524 10.9548 10.2861C10.9463 10.2946 10.0863 11.111 8.0001 11.111C5.91387 11.111 5.05343 10.2946 5.04543 10.2866C5.01102 10.2526 4.96649 10.2307 4.91855 10.2242C4.87062 10.2177 4.82187 10.227 4.77965 10.2506C4.73728 10.2745 4.70394 10.3117 4.68475 10.3564C4.66556 10.4012 4.66159 10.4509 4.67343 10.4981Z" fill="black"/>
<path d="M5.33328 7.55569C5.94693 7.55569 6.44439 6.85925 6.44439 6.00014C6.44439 5.14103 5.94693 4.44458 5.33328 4.44458C4.71963 4.44458 4.22217 5.14103 4.22217 6.00014C4.22217 6.85925 4.71963 7.55569 5.33328 7.55569Z" fill="black"/>
<path d="M10.6668 7.55569C11.2804 7.55569 11.7779 6.85925 11.7779 6.00014C11.7779 5.14103 11.2804 4.44458 10.6668 4.44458C10.0531 4.44458 9.55566 5.14103 9.55566 6.00014C9.55566 6.85925 10.0531 7.55569 10.6668 7.55569Z" fill="black"/>
</svg>
