<svg width="16" height="16" viewBox="0 0 16 16" fill="none" xmlns="http://www.w3.org/2000/svg">
<path d="M16 8C16 12.4182 12.4182 16 8 16C3.58222 16 0 12.4182 0 8C0 3.58222 3.58222 0 8 0C12.4182 0 16 3.58222 16 8Z" fill="#FF8311"/>
<path d="M5.11111 8.88894C5.72476 8.88894 6.22222 8.1925 6.22222 7.33339C6.22222 6.47428 5.72476 5.77783 5.11111 5.77783C4.49746 5.77783 4 6.47428 4 7.33339C4 8.1925 4.49746 8.88894 5.11111 8.88894Z" fill="black"/>
<path d="M10.8889 8.88894C11.5026 8.88894 12.0001 8.1925 12.0001 7.33339C12.0001 6.47428 11.5026 5.77783 10.8889 5.77783C10.2753 5.77783 9.77783 6.47428 9.77783 7.33339C9.77783 8.1925 10.2753 8.88894 10.8889 8.88894Z" fill="black"/>
<path d="M11.111 11.5556H4.88878C4.77091 11.5556 4.65786 11.5088 4.57451 11.4255C4.49116 11.3421 4.44434 11.2291 4.44434 11.1112C4.44434 10.9933 4.49116 10.8803 4.57451 10.7969C4.65786 10.7136 4.77091 10.6667 4.88878 10.6667H11.111C11.2289 10.6667 11.3419 10.7136 11.4253 10.7969C11.5086 10.8803 11.5554 10.9933 11.5554 11.1112C11.5554 11.2291 11.5086 11.3421 11.4253 11.4255C11.3419 11.5088 11.2289 11.5556 11.111 11.5556Z" fill="black"/>
</svg>
